HIERARCHY
ROOT Hips
{
	OFFSET 0.000000 0.000000 0.000000
	CHANNELS 6 Xposition Yposition Zposition Zrotation Yrotation Xrotation 
	JOINT LHipJoint
	{
		OFFSET 0.000000 0.000000 0.000000
		CHANNELS 3 Zrotation Yrotation Xrotation
		JOINT LeftUpLeg
		{
			OFFSET 1.363060 -1.794630 0.839290
			CHANNELS 3 Zrotation Yrotation Xrotation
			JOINT LeftLeg
			{
				OFFSET 2.448110 -6.726130 0.000000
				CHANNELS 3 Zrotation Yrotation Xrotation
				JOINT LeftFoot
				{
					OFFSET 2.562200 -7.039590 0.000000
					CHANNELS 3 Zrotation Yrotation Xrotation
					JOINT LeftToeBase
					{
						OFFSET 0.157640 -0.433110 2.322550
						CHANNELS 3 Zrotation Yrotation Xrotation
						End Site
						{
							OFFSET 0.000000 0.000000 0.000000
						}
					}
				}
			}
		}
	}
	JOINT RHipJoint
	{
		OFFSET 0.000000 0.000000 0.000000
		CHANNELS 3 Zrotation Yrotation Xrotation
		JOINT RightUpLeg
		{
			OFFSET -1.305520 -1.794630 0.839290
			CHANNELS 3 Zrotation Yrotation Xrotation
			JOINT RightLeg
			{
				OFFSET -2.542530 -6.985550 0.000000
				CHANNELS 3 Zrotation Yrotation Xrotation
				JOINT RightFoot
				{
					OFFSET -2.568260 -7.056230 0.000000
					CHANNELS 3 Zrotation Yrotation Xrotation
					JOINT RightToeBase
					{
						OFFSET -0.164730 -0.452590 2.363150
						CHANNELS 3 Zrotation Yrotation Xrotation
						End Site
						{
							OFFSET 0.000000 0.000000 0.000000
						}
					}
				}
			}
		}
	}
}
MOTION
Frames: 27
Frame Time: 0.008333
-1.550251 17.400654 -0.848670 155.634429 -84.463991 -145.352980 -10.838019 -0.086323 2.535406 -4.798480 -8.127719 -34.915612 1.034666 2.012674 49.830765 2.927590 18.056613 15.985430 6.842200 0.000000 -66.800300 8.401091 -1.557182 2.491352 11.085082 6.017594 -8.103427 2.369467 1.167113 0.562951 -1.267675 -6.448978 -2.464126 -1.236900 -0.000000 -43.770600
-1.510112 17.402756 -0.873569 154.096342 -84.164978 -144.098035 -10.832023 -0.344076 2.457049 -4.849517 -8.343974 -36.772790 1.173316 2.123807 52.896917 2.958449 17.565290 19.370477 7.376600 0.000000 -65.885600 8.496969 -1.515431 2.291596 10.842956 5.534367 -8.103642 2.363217 1.083256 1.005648 -1.163339 -5.856043 -2.474576 -1.139700 0.000000 -44.305100
-1.467068 17.404055 -0.896931 152.517825 -83.889863 -142.825747 -10.813594 -0.620192 2.358268 -4.919221 -8.543531 -38.698089 1.281392 2.241385 56.041274 2.980924 16.843358 22.542219 7.671000 0.000001 -64.133700 8.593817 -1.466318 2.075259 10.591944 5.035027 -8.032358 2.353504 1.005386 1.371077 -1.065070 -5.298780 -2.465969 -1.051500 -0.000000 -44.840600
-1.421243 17.404627 -0.918716 150.877020 -83.648952 -141.516897 -10.784144 -0.908793 2.232479 -5.015447 -8.721582 -40.684645 1.368882 2.375689 59.288098 2.991836 15.934571 25.348481 7.710000 0.000000 -61.860100 8.690918 -1.410496 1.845764 10.335918 4.543401 -7.873875 2.338048 0.933962 1.646676 -0.979150 -4.811820 -2.438090 -0.976700 -0.000000 -45.360600
-1.372795 17.404658 -0.938916 149.155539 -83.449763 -140.157944 -10.746527 -1.204897 2.073498 -5.146675 -8.870369 -42.726606 1.451368 2.535642 62.665294 2.989719 14.908382 27.670897 7.519200 -0.000000 -59.327900 8.787555 -1.348651 1.607203 10.079580 4.085228 -7.614642 2.314726 0.868997 1.825666 -0.911548 -4.428706 -2.393854 -0.918900 0.000000 -45.819000
-1.322089 17.404361 -0.957772 147.324265 -83.296022 -138.723065 -10.703156 -1.505508 1.877455 -5.323579 -8.986009 -44.815648 1.546550 2.726171 66.193619 2.976328 13.857716 29.447252 7.163501 -0.000000 -56.829100 8.884730 -1.281841 1.362714 9.824587 3.677668 -7.248784 2.281722 0.809182 1.912665 -0.866102 -4.171710 -2.336296 -0.880200 0.000000 -46.202001
-1.269787 17.403978 -0.975599 145.355992 -83.186533 -137.185655 -10.655319 -1.809676 1.643454 -5.555578 -9.069298 -46.942369 1.670734 2.947840 69.880865 2.955816 12.881323 30.670702 6.728799 0.000000 -54.617799 8.984415 -1.211023 1.115139 9.570580 3.332039 -6.780055 2.237758 0.752339 1.924595 -0.844864 -4.051740 -2.272745 -0.860899 -0.000000 -46.486400
-1.216342 17.403761 -0.992915 143.206893 -83.115079 -135.504647 -10.601368 -2.118382 1.373716 -5.852734 -9.129119 -49.092194 1.835528 3.196198 73.711721 2.934691 12.074751 31.402764 6.308300 -0.000000 -53.103600 9.091326 -1.136557 0.865068 9.311826 3.045647 -6.223236 2.181977 0.694661 1.893294 -0.847076 -4.062250 -2.212133 -0.859200 -0.000000 -46.685300
-1.162646 17.403907 -1.010253 140.868161 -83.071921 -133.666062 -10.539078 -2.431915 1.072819 -6.220181 -9.170442 -51.262369 2.049922 3.466167 77.666364 2.916095 11.485376 31.694136 5.956800 0.000000 -52.051100 9.209623 -1.059000 0.615581 9.043701 2.815733 -5.606455 2.114529 0.632624 1.860620 -0.870969 -4.188722 -2.168691 -0.871700 0.000000 -46.786500
-1.109435 17.404612 -1.028261 138.332315 -83.043409 -131.655767 -10.462918 -2.751124 0.748883 -6.659613 -9.206526 -53.448978 2.316211 3.749062 81.695887 2.904515 11.142486 31.658037 5.717700 -0.000000 -51.553501 9.345145 -0.977958 0.368539 8.757082 2.630460 -4.968196 2.035948 0.562165 1.877998 -0.912884 -4.404517 -2.158301 -0.893000 0.000000 -46.805300
-1.057470 17.406005 -1.047489 135.627096 -83.014188 -129.488855 -10.366375 -3.076014 0.412544 -7.165646 -9.251389 -55.658952 2.632110 4.036153 85.739661 2.902214 11.035753 31.413978 5.603000 -0.000000 -51.531700 9.502378 -0.892539 0.127271 8.443555 2.479551 -4.354864 1.947501 0.480232 1.998028 -0.968557 -4.679434 -2.197868 -0.916800 0.000000 -46.757200
-1.007575 17.408125 -1.068357 132.820937 -82.968469 -127.214329 -10.242980 -3.406043 0.076820 -7.723148 -9.319959 -57.911240 2.990930 4.319441 89.728078 2.909560 11.123312 31.086810 5.601700 0.000000 -51.876000 9.682637 -0.801601 -0.102750 8.098025 2.360591 -3.816150 1.850822 0.385410 2.267038 -1.034376 -4.988551 -2.301548 -0.937700 -0.000000 -46.656300
-0.960159 17.410891 -1.091204 129.982366 -82.892353 -124.885792 -10.085802 -3.740133 -0.245690 -8.313908 -9.428281 -60.226973 3.382253 4.591828 93.586943 2.924687 11.340446 30.791565 5.687700 0.000000 -52.427600 9.886892 -0.703157 -0.318520 7.713434 2.264990 -3.396328 1.747726 0.276871 2.723533 -1.105715 -5.302720 -2.480805 -0.949300 -0.000001 -46.528800
-0.915750 17.414084 -1.116123 127.209345 -82.774853 -122.580081 -9.889988 -4.076876 -0.541789 -8.910513 -9.591253 -62.635973 3.793401 4.848300 97.245309 2.943589 11.605812 30.623080 5.824300 -0.000000 -53.017600 10.111759 -0.595929 -0.516023 7.288550 2.191650 -3.131580 1.640299 0.155789 3.388694 -1.178981 -5.601750 -2.740553 -0.947400 -0.000000 -46.391100
-0.874536 17.417341 -1.142869 124.607665 -82.610021 -120.387657 -9.653800 -4.415456 -0.799809 -9.476907 -9.819645 -65.168727 4.210199 5.085998 100.638411 2.960796 11.832392 30.651963 5.969800 0.000001 -53.526200 10.349380 -0.479280 -0.691674 6.828794 2.146909 -3.043583 1.530654 0.024676 4.262916 -1.252053 -5.877280 -3.075592 -0.930900 -0.000000 -46.259700
-0.836597 17.420229 -1.171173 122.244634 -82.396176 -118.366416 -9.376276 -4.753920 -1.011748 -9.980446 -10.120305 -67.844778 4.618038 5.303198 103.710045 2.970114 11.938496 30.914033 6.080800 0.000000 -53.856800 10.593357 -0.353112 -0.846693 6.338341 2.124129 -3.135104 1.420950 -0.113813 5.330738 -1.321547 -6.115588 -3.475879 -0.899000 -0.000000 -46.152600
-0.801875 17.422231 -1.200567 120.163099 -82.135622 -116.557168 -9.058853 -5.089297 -1.173800 -10.390629 -10.491252 -70.671668 5.003300 5.499658 106.418265 2.965955 11.856296 31.413049 6.115000 0.000000 -53.981300 10.836979 -0.218128 -0.984404 5.823683 2.115194 -3.390313 1.313258 -0.256460 6.558458 -1.384529 -6.307534 -3.925036 -0.852601 0.000000 -46.081500
-0.769968 17.422847 -1.230492 118.380561 -81.835172 -114.984707 -8.705147 -5.418120 -1.286318 -10.679993 -10.921076 -73.644861 5.353247 5.675692 108.728518 2.944529 11.539951 32.122880 6.034400 0.000001 -53.927100 11.073069 -0.075742 -1.109835 5.295153 2.113471 -3.775899 1.209553 -0.399688 7.896748 -1.439290 -6.451925 -4.402042 -0.795100 -0.000000 -46.053001
-0.740601 17.421753 -1.260594 116.872883 -81.502316 -113.636222 -8.319020 -5.734609 -1.354291 -10.836783 -11.391235 -76.742099 5.657969 5.831821 110.624707 2.904692 10.973782 32.994476 5.813100 0.000000 -53.775000 11.298806 0.072611 -1.229996 4.758500 2.104316 -4.247234 1.111449 -0.540166 9.290921 -1.483661 -6.543620 -4.889910 -0.729200 0.000000 -46.058500
-0.713452 17.418746 -1.290344 115.611534 -81.148702 -112.497154 -7.906940 -6.033451 -1.384843 -10.854296 -11.876659 -79.933645 5.909696 5.968518 112.097171 2.847991 10.171723 33.960285 5.439899 -0.000000 -53.611300 11.509517 0.224491 -1.350475 4.226174 2.082785 -4.752911 1.020519 -0.674239 10.680182 -1.518010 -6.590422 -5.371965 -0.659200 0.000000 -46.084700
-0.688099 17.413792 -1.319156 114.559604 -80.788985 -111.546746 -7.477648 -6.310522 -1.386297 -10.733254 -12.349502 -83.184025 6.104427 6.086507 113.151860 2.778431 9.179022 34.945178 4.925101 -0.000000 -53.527500 11.699645 0.376597 -1.475119 3.715384 2.050862 -5.242291 0.938248 -0.798601 12.006443 -1.544370 -6.607462 -5.833768 -0.589601 -0.000000 -46.111200
-0.664369 17.407045 -1.346686 113.665983 -80.436929 -110.746740 -7.038999 -6.561419 -1.366791 -10.487178 -12.786063 -86.452271 6.239825 6.185556 113.798311 2.701928 8.072153 35.874541 4.305301 0.000000 -53.623100 11.866462 0.525910 -1.607301 3.239294 2.006591 -5.672396 0.865806 -0.910724 13.223176 -1.564578 -6.605698 -6.269307 -0.522900 0.000000 -46.111600
-0.642060 17.398774 -1.372755 112.867325 -80.103688 -110.046944 -6.597075 -6.781411 -1.334122 -10.142515 -13.169520 -89.694526 6.315187 6.264415 114.047136 2.625059 6.951197 36.670812 3.640400 0.000000 -53.856400 12.010834 0.670406 -1.750080 2.804631 1.942787 -6.010421 0.803856 -1.009279 14.299628 -1.579729 -6.589945 -6.679380 -0.459600 -0.000000 -46.054100
-0.621111 17.389288 -1.396808 112.130536 -79.805042 -109.421535 -6.161086 -6.969212 -1.292002 -9.716059 -13.489311 -92.874614 6.330467 6.322202 113.908699 2.555059 5.929444 37.284519 3.008700 0.000000 -54.316301 12.128006 0.806409 -1.903070 2.427847 1.865982 -6.235887 0.753396 -1.093156 15.213189 -1.592912 -6.575808 -7.061972 -0.401400 0.000000 -45.920000
-0.601627 17.378925 -1.418876 111.407963 -79.548543 -108.825335 -5.736487 -7.121651 -1.242550 -9.231409 -13.744596 -95.955413 6.284968 6.356920 113.384965 2.498373 5.120432 37.680673 2.494600 -0.000000 -55.015700 12.218745 0.932164 -2.065896 2.115348 1.775285 -6.341167 0.714329 -1.162411 15.958795 -1.605704 -6.569244 -7.420961 -0.347899 0.000000 -45.690400
-0.583523 17.367980 -1.438602 110.674697 -79.345461 -108.234893 -5.329933 -7.237743 -1.185227 -8.703356 -13.939087 -98.904581 6.177325 6.366219 112.466864 2.460066 4.616853 37.846073 2.170200 0.000000 -55.908401 12.281317 1.045566 -2.236812 1.875582 1.675723 -6.330177 0.686680 -1.217822 16.540764 -1.620234 -6.580093 -7.756081 -0.299500 0.000000 -45.369900
-0.566809 17.356688 -1.456187 109.900454 -79.198074 -107.616967 -4.945478 -7.314946 -1.118669 -8.146289 -14.079493 -101.689921 6.007259 6.347563 111.139028 2.442424 4.473659 37.774888 2.080000 0.000000 -56.706599 12.318261 1.146409 -2.413677 1.709440 1.570065 -6.216024 0.669474 -1.260865 16.975993 -1.637752 -6.612469 -8.072353 -0.255100 0.000001 -44.943100
